<svg xmlns="http://www.w3.org/2000/svg" xmlns:xlink="http://www.w3.org/1999/xlink" aria-hidden="true" role="img" class="iconify iconify--logos" width="35.93" height="32" preserveAspectRatio="xMidYMid meet" viewBox="0 0 256 228"><path fill="#00D8FF" d="M210.483 73.824a171.49 171.49 0 0 0-8.24-2.597c.465-1.9.893-3.777 1.273-5.621c6.238-30.281 2.16-54.676-11.769-62.708c-13.355-7.7-35.196.329-57.254 19.526a171.23 171.23 0 0 0-6.375 5.848a155.866 155.866 0 0 0-4.241-3.917C100.759 3.829 77.587-4.822 63.673 3.233C50.33 10.957 46.379 33.89 51.995 62.588a170.974 170.974 0 0 0 1.892 8.48c-3.28.932-6.445 1.924-9.474 2.98C17.204 83.404 0 141.106 0 200.419c0 16.166 2.928 30.541 8.686 42.666c14.102 29.742 39.662 48.837 71.76 48.837c16.877 0 32.73-3.34 46.63-9.622c13.386-6.048 25.614-14.14 36.117-23.923c10.503 9.783 22.732 17.875 36.118 23.923c13.9 6.282 29.753 9.622 46.63 9.622c32.098 0 57.658-19.095 71.76-48.837c5.758-12.125 8.686-26.5 8.686-42.666c0-59.313-17.204-117.015-44.413-126.361Zm-58.321-43.95c17.692-11.894 33.63-17.616 42.739-13.155c9.906 4.852 12.671 23.134 8.115 48.107c-.386 2.114-.84 4.283-1.355 6.497c-18.24-4.413-38.12-7.793-58.613-9.997c-12.21-17.716-25.26-33.769-39.543-47.418c3.026-2.89 6.205-5.604 9.657-8.034Zm-114.59 80.344c-2.64-6.726-5.169-13.463-7.585-20.193c13.258-3.078 27.693-5.506 42.853-7.193c-3.425 7.963-6.509 16.18-9.266 24.548c-2.736-6.059-5.535-12.118-8.515-18.162Zm37.356 34.195c6.054 10.47 12.447 20.765 19.154 30.825c-19.043.746-38.27.746-57.313 0c6.707-10.06 13.1-20.355 19.159-30.825Zm-36.851-63.814c2.643-6.726 5.435-13.463 8.389-20.193c2.823 6.044 5.853 12.103 9.072 18.162c-2.757-8.368-5.841-16.585-9.266-24.548c-15.16 1.687-29.595 4.115-42.853 7.193c2.416 6.73 4.945 13.467 7.585 20.193Zm36.851 63.814c-6.054-10.47-12.447-20.765-19.154-30.825c19.043-.746 38.27-.746 57.313 0c-6.707 10.06-13.1 20.355-19.159 30.825Zm19.154-30.825c6.054 10.47 12.447 20.765 19.154 30.825c6.059-10.47 12.452-20.765 19.159-30.825c-19.043.746-38.27.746-57.313 0Zm36.851-63.814c2.736 6.059 5.535 12.118 8.515 18.162c2.757-8.368 5.841-16.585 9.266-24.548c15.16 1.687 29.595 4.115 42.853 7.193c-2.416-6.73-4.945-13.467-7.585-20.193Zm-36.851 63.814c-6.054 10.47-12.447 20.765-19.154 30.825c-6.059-10.47-12.452-20.765-19.159-30.825c19.043-.746 38.27-.746 57.313 0Zm58.321 43.95c-17.692 11.894-33.63 17.616-42.739 13.155c-9.906-4.852-12.671-23.134-8.115-48.107c.386-2.114.84-4.283 1.355-6.497c18.24 4.413 38.12 7.793 58.613 9.997c12.21 17.716 25.26 33.769 39.543 47.418c-3.026 2.89-6.205 5.604-9.657 8.034ZM114.883 14.887c-9.109-4.461-25.047 1.261-42.739 13.155c-3.452 2.43-6.631 5.144-9.657 8.034c14.283 13.649 27.333 29.702 39.543 47.418c20.493 2.204 40.373 5.584 58.613 9.997c-.515-2.214-.969-4.383-1.355-6.497c-4.556-24.973-1.791-43.255 8.115-48.107Z"/><path fill="#53C1DE" d="M144.862 127.994c-8.844 0-16.019-7.175-16.019-16.019s7.175-16.019 16.019-16.019s16.019 7.175 16.019 16.019s-7.175 16.019-16.019 16.019Z"/></svg>
